name C:\Users\u0101727\Documents\MyRepositories\upper-imu-dc\Results\main_tracking\Case_47\FLX03_linearAccelerations_bodyFrame.mot
datacolumns 4
datarows 70
range 2.13000000 2.82000000
endheader 
time	radius_imu_x	radius_imu_y	radius_imu_z	
          2.13000000	         -5.86958417	          0.02624716	          7.93303693	
          2.14000000	         -5.91201958	         -0.14150966	          7.81787287	
          2.15000000	         -5.94062586	         -0.30885780	          7.70789029	
          2.16000000	         -5.95622240	         -0.47522906	          7.60507050	
          2.17000000	         -5.95970042	         -0.64008164	          7.51106656	
          2.18000000	         -5.95207149	         -0.80294699	          7.42703191	
          2.19000000	         -5.93449168	         -0.96347431	          7.35346192	
          2.20000000	         -5.90829317	         -1.12147384	          7.29009097	
          2.21000000	         -5.87501974	         -1.27694687	          7.23589333	
          2.22000000	         -5.83643629	         -1.43007874	          7.18922056	
          2.23000000	         -5.79449003	         -1.58118459	          7.14806230	
          2.24000000	         -5.75121059	         -1.73061816	          7.11036899	
          2.25000000	         -5.70853924	         -1.87867118	          7.07435576	
          2.26000000	         -5.66811620	         -2.02550691	          7.03871682	
          2.27000000	         -5.63110254	         -2.17115565	          7.00270591	
          2.28000000	         -5.59809292	         -2.31555771	          6.96607820	
          2.29000000	         -5.56911708	         -2.45861508	          6.92893691	
          2.30000000	         -5.54369554	         -2.60022723	          6.89156847	
          2.31000000	         -5.52090981	         -2.74030389	          6.85435051	
          2.32000000	         -5.49946827	         -2.87876492	          6.81776221	
          2.33000000	         -5.47778448	         -3.01557142	          6.78244123	
          2.34000000	         -5.45410081	         -3.15072201	          6.74920681	
          2.35000000	         -5.42666108	         -3.28425453	          6.71896929	
          2.36000000	         -5.39391474	         -3.41625529	          6.69253934	
          2.37000000	         -5.35471216	         -3.54672352	          6.67043957	
          2.38000000	         -5.30843786	         -3.67568593	          6.65271803	
          2.39000000	         -5.25506879	         -3.80293829	          6.63893908	
          2.40000000	         -5.19517424	         -3.92821178	          6.62818048	
          2.41000000	         -5.12976374	         -4.05111805	          6.61911420	
          2.42000000	         -5.06025423	         -4.17139801	          6.61011623	
          2.43000000	         -4.98835143	         -4.28874316	          6.59944793	
          2.44000000	         -4.91596215	         -4.40296689	          6.58539707	
          2.45000000	         -4.84509392	         -4.51398516	          6.56646322	
          2.46000000	         -4.77771019	         -4.62178897	          6.54152442	
          2.47000000	         -4.71554777	         -4.72650863	          6.50992791	
          2.48000000	         -4.65990731	         -4.82838451	          6.47149106	
          2.49000000	         -4.61144004	         -4.92775990	          6.42637678	
          2.50000000	         -4.56999913	         -5.02504612	          6.37489987	
          2.51000000	         -4.53463917	         -5.12066261	          6.31734617	
          2.52000000	         -4.50378531	         -5.21498898	          6.25385733	
          2.53000000	         -4.47550745	         -5.30834009	          6.18439357	
          2.54000000	         -4.44780489	         -5.40096915	          6.10876665	
          2.55000000	         -4.41883936	         -5.49308912	          6.02673085	
          2.56000000	         -4.38709483	         -5.58489798	          5.93809901	
          2.57000000	         -4.35146184	         -5.67659368	          5.84283312	
          2.58000000	         -4.31123612	         -5.76837212	          5.74106782	
          2.59000000	         -4.26603916	         -5.86040599	          5.63308232	
          2.60000000	         -4.21570363	         -5.95282108	          5.51927833	
          2.61000000	         -4.16018164	         -6.04569736	          5.40020779	
          2.62000000	         -4.09951885	         -6.13909289	          5.27662586	
          2.63000000	         -4.03388353	         -6.23305975	          5.14952739	
          2.64000000	         -3.96362765	         -6.32763274	          5.02014144	
          2.65000000	         -3.88933877	         -6.42279457	          4.88990268	
          2.66000000	         -3.81187177	         -6.51842734	          4.76042757	
          2.67000000	         -3.73236997	         -6.61426791	          4.63350163	
          2.68000000	         -3.65228010	         -6.70988878	          4.51105928	
          2.69000000	         -3.57333760	         -6.80471507	          4.39512889	
          2.70000000	         -3.49748653	         -6.89806932	          4.28772137	
          2.71000000	         -3.42672478	         -6.98923108	          4.19066287	
          2.72000000	         -3.36290104	         -7.07749955	          4.10541090	
          2.73000000	         -3.30751230	         -7.16225573	          4.03291591	
          2.74000000	         -3.26154956	         -7.24305099	          3.97356548	
          2.75000000	         -3.22542082	         -7.31961802	          3.92721801	
          2.76000000	         -3.19896081	         -7.39195432	          3.89326049	
          2.77000000	         -3.18150152	         -7.46021945	          3.87067664	
          2.78000000	         -3.17191637	         -7.52467786	          3.85811535	
          2.79000000	         -3.16874168	         -7.58561527	          3.85393003	
          2.80000000	         -3.17026006	         -7.64324339	          3.85624046	
          2.81000000	         -3.17464087	         -7.69777206	          3.86299336	
          2.82000000	         -3.18010679	         -7.74934291	          3.87208754	
